# xmcd
#
# Track frame offsets:
#	150
#	9818
#	21574
#	32832
#	42556
#	57875
#	69122
#	81569
#	93896
#	103268
#	124252
#	138100
#	152128
#	163990
#	177769
#	187728
#	199677
#	212177
#	221881
#	230656
#
# Disc length: 3309 seconds
#
# Revision: 2
# Processed by: cddbd v1.5.1PL2 Copyright (c) Steve Scherf et al.
# Submitted via: audiograbber 1.83.01
#
DISCID=1c0ceb14
DTITLE=Diverse - Country And Western Hits
DYEAR=1900
DGENRE=
TTITLE0=The Man In The Little White Suit
TTITLE1=Yonder Comes A Sucker
TTITLE2=The Wreck Of The Number Nine
TTITLE3=Foggy Mountain Top
TTITLE4=The Streets Of Laredo
TTITLE5=Foggy  Mountain Breakdown
TTITLE6=Green Green Grass Of Home
TTITLE7=Alberta Bound
TTITLE8=Time To Bum Again
TTITLE9=El Paso
TTITLE10=Ruby Dont Take Your Love Town
TTITLE11=Daddy Was An Old Time Preacher Man
TTITLE12=Rocky Top
TTITLE13=Good Hearted Woman
TTITLE14=Pick Away
TTITLE15=The Street Of Baltimore
TTITLE16=Take Me Home Country Roads
TTITLE17=Ten Miles From Home
TTITLE18=Nlue Grass
TTITLE19=City Of New Oleans
EXTD=Schallplatte
EXTT0=
EXTT1=
EXTT2=
EXTT3=
EXTT4=
EXTT5=
EXTT6=
EXTT7=
EXTT8=
EXTT9=
EXTT10=
EXTT11=
EXTT12=
EXTT13=
EXTT14=
EXTT15=
EXTT16=
EXTT17=
EXTT18=
EXTT19=
PLAYORDER=
